<svg width="1445" height="800" viewBox="0 0 1445 800" fill="none" xmlns="http://www.w3.org/2000/svg">
<g filter="url(#filter0_d_643_113)">
<path d="M442 305.183H558V425.992V541.491V581.589H442V554.549V372.281V305.183Z" fill="#00B0FF"/>
</g>
<g filter="url(#filter1_d_643_113)">
<path d="M313.34 181H441.5V372.281V554.436V618.19H313.34V392.811L313.34 181Z" fill="#FF2260"/>
</g>
<g filter="url(#filter2_d_643_113)">
<rect x="383.242" y="381.38" width="104.854" height="166.984" fill="#0058A9"/>
</g>
<g filter="url(#filter3_d_643_113)">
<rect x="258" y="396.561" width="84.466" height="148.768" fill="#E2C028"/>
</g>
<g filter="url(#filter4_d_643_113)">
<path d="M802.911 456.83H814.774V539.627V559.866H802.911V456.83Z" fill="#0058A9"/>
</g>
<g filter="url(#filter5_d_643_113)">
<path d="M1058.92 456.83H1070.78H1099.94V469.335H1070.78V539.627V559.866H1058.92V469.335H1028.91V456.83H1058.92Z" fill="#0058A9"/>
</g>
<g filter="url(#filter6_d_643_113)">
<path d="M1116.65 546.75V535.05C1125.95 544.65 1140.65 549.3 1152.95 549.3C1164.95 549.3 1178.75 543.9 1178.75 530.1C1178.75 522.6 1172.6 518.55 1164.5 515.55C1146.05 508.8 1116.2 508.8 1116.2 484.95C1116.2 465.75 1134.5 456.6 1151.75 456.6C1163.45 456.6 1176.2 460.65 1185.35 468.75V480.45C1176.5 471.45 1163.3 466.65 1151.75 466.65C1140.05 466.65 1126.55 471.9 1126.55 485.55C1126.55 495.75 1137.65 499.05 1150.25 501.9C1168.25 505.95 1189.7 509.55 1189.7 530.7C1189.7 550.65 1170.35 559.35 1152.5 559.35C1140.05 559.35 1126.4 555.3 1116.65 546.75Z" fill="#0058A9"/>
</g>
<g filter="url(#filter7_d_643_113)">
<path d="M612.911 456.671H624.415V501.687H676.933V456.671H688.937V559.707H676.933V514.191H624.415V559.707H612.911V456.671Z" fill="#0058A9"/>
</g>
<g filter="url(#filter8_d_643_113)">
<path d="M935.911 456.83H947.415V501.846H999.933V456.83H1011.94V559.866H999.933V514.35H947.415V559.866H935.911V456.83Z" fill="#0058A9"/>
</g>
<g filter="url(#filter9_d_643_113)">
<path d="M712.911 456.83H735.565H784.936V468.834H724.915V501.846H782.935V513.85H724.915V549.862H784.936V559.866H735.565H712.911V456.83Z" fill="#0058A9"/>
</g>
<g filter="url(#filter10_d_643_113)">
<path d="M831.629 516.123C831.445 514.772 831.353 514.096 831.283 513.419C831.104 511.704 831.03 509.979 831.059 508.255C831.071 507.574 831.104 506.893 831.171 505.532L831.248 503.954C831.263 503.649 831.27 503.496 831.279 503.344C831.464 500.026 832.036 496.741 832.981 493.555C833.024 493.409 833.068 493.263 833.157 492.971C833.259 492.637 833.309 492.471 833.361 492.305C834.493 488.691 836.099 485.243 838.137 482.051C838.231 481.905 838.326 481.759 838.516 481.467L839.558 479.863C839.81 479.475 839.936 479.281 840.064 479.089C841.054 477.602 842.136 476.177 843.304 474.825C843.455 474.65 843.608 474.477 843.913 474.13C844.567 473.389 844.894 473.019 845.227 472.658C847.811 469.862 850.756 467.422 853.984 465.404C854.401 465.143 854.826 464.891 855.675 464.387L856.147 464.107C857.793 463.13 858.615 462.641 859.452 462.193C863.226 460.173 867.282 458.729 871.485 457.91C872.416 457.729 873.363 457.588 875.255 457.305L877.167 457.02C878.033 456.891 878.466 456.826 878.898 456.771C883.043 456.239 887.244 456.315 891.367 456.999C891.796 457.07 892.226 457.15 893.087 457.311C893.681 457.422 893.977 457.477 894.272 457.536C897.101 458.106 899.865 458.96 902.522 460.084C902.799 460.202 903.075 460.323 903.627 460.566L911.05 463.832V474.836L899.045 470.334L896.713 469.617C893.942 468.764 891.082 468.235 888.19 468.039C886.168 467.902 884.138 467.929 882.12 468.119L880.445 468.277C876.527 468.646 872.685 469.587 869.04 471.07C866.156 472.243 863.419 473.746 860.881 475.549L859.61 476.451C854.629 479.991 850.569 484.673 847.77 490.106C844.981 495.52 843.526 501.521 843.526 507.611V509.439C843.526 514.66 844.57 519.83 846.596 524.643C849.803 532.257 855.334 538.663 862.399 542.945L865.735 544.967C867.266 545.895 868.863 546.708 870.514 547.4C878.893 550.914 888.283 551.16 896.834 548.091L903.047 545.86V512.849H870.925V502.846H914.051V553.863L910.688 555.392C907.934 556.644 906.557 557.269 905.144 557.795C903.693 558.335 902.214 558.796 900.713 559.176C899.252 559.546 897.763 559.813 894.785 560.348L891.684 560.905C890.729 561.076 890.252 561.161 889.776 561.236C885.64 561.883 881.432 561.92 877.285 561.346C876.808 561.28 876.329 561.203 875.372 561.049C874.512 560.91 874.081 560.841 873.655 560.763C869.95 560.088 866.35 558.928 862.948 557.312C862.556 557.126 862.167 556.931 861.387 556.542L857.63 554.663C857.25 554.473 857.06 554.378 856.872 554.282C853.025 552.31 849.498 549.769 846.412 546.742C846.261 546.594 846.111 546.444 845.81 546.144C845.535 545.868 845.397 545.731 845.261 545.592C842.481 542.761 840.107 539.558 838.209 536.074C838.116 535.904 838.024 535.732 837.841 535.388L837.394 534.551C836.638 533.133 836.26 532.425 835.911 531.707C834.158 528.103 832.919 524.271 832.231 520.322C832.094 519.536 831.986 518.74 831.769 517.148L831.629 516.123Z" fill="#0058A9"/>
</g>
<g filter="url(#filter11_d_643_113)">
<path d="M612.121 328.785H637.13V418.816H690.148V440.824H637.13H612.121V328.785Z" fill="#0058A9"/>
</g>
<g filter="url(#filter12_d_643_113)">
<path d="M697.151 328.785H722.159H779.179V350.793H722.159V373.801H777.178V396.809H722.159V418.816H778.179V440.824H722.159H697.151V328.785Z" fill="#0058A9"/>
</g>
<g filter="url(#filter13_d_643_113)">
<path d="M784.182 328.785H803.188L850.205 393.808V328.785H876.214V440.824H856.707L809.191 373.301V440.824H784.182V328.785Z" fill="#0058A9"/>
</g>
<g filter="url(#filter14_d_643_113)">
<path d="M996.255 328.785H1015.26L1062.28 393.808V328.785H1088.29V440.824H1068.78L1021.26 373.301V440.824H996.255V328.785Z" fill="#0058A9"/>
</g>
<g filter="url(#filter15_d_643_113)">
<path d="M963.244 328.785H988.253V440.824H963.244V414.815C963.244 414.815 967.51 407.128 969.246 401.811C971.34 395.4 972.248 391.549 972.248 384.805C972.248 378.061 971.34 374.21 969.246 367.799C967.51 362.482 963.244 354.794 963.244 354.794V328.785Z" fill="#0058A9"/>
</g>
<g filter="url(#filter16_dd_643_113)">
<path d="M900.222 349.793C900.222 349.793 915.277 347.011 924.23 349.793C932.199 352.269 936.901 354.881 942.236 361.297C947.501 367.628 949.327 372.62 950.239 380.804C951.5 392.11 949.674 400.205 942.236 408.813C936.849 415.049 932.121 417.442 924.23 419.817C915.252 422.52 900.222 419.817 900.222 419.817V349.793Z" fill="#E2C028"/>
</g>
<g filter="url(#filter17_d_643_113)">
<path d="M1110.37 346.671C1111.74 345.186 1126.89 327.671 1153.44 327.671C1171.87 327.671 1186.49 336.492 1186.49 336.492V362.278C1186.49 362.278 1173.71 351.418 1155.12 351.418C1153.05 351.418 1131.86 350.739 1123.15 371.778C1121.38 376.04 1120.7 378.711 1120.7 383.314C1120.7 383.99 1120.03 392.811 1126.89 402.314C1127.38 402.99 1131.71 411.133 1146.17 415.204C1155.76 417.905 1165.45 414.529 1165.45 414.529V393.493H1136.92V371.778H1187.87V430.136C1187.87 430.136 1173.71 439.636 1153.44 439.636C1152.37 439.636 1130.33 441.269 1111.74 421.993C1110.37 420.565 1095.91 407.061 1095.91 383.314C1095.91 379.918 1095.9 362.278 1110.37 346.671Z" fill="#0058A9"/>
</g>
<defs>
<filter id="filter0_d_643_113" x="438.191" y="305.183" width="123.618" height="284.025" filterUnits="userSpaceOnUse" color-interpolation-filters="sRGB">
<feFlood flood-opacity="0" result="BackgroundImageFix"/>
<feColorMatrix in="SourceAlpha" type="matrix" values="0 0 0 0 0 0 0 0 0 0 0 0 0 0 0 0 0 0 127 0" result="hardAlpha"/>
<feOffset dy="3.80908"/>
<feGaussianBlur stdDeviation="1.90454"/>
<feComposite in2="hardAlpha" operator="out"/>
<feColorMatrix type="matrix" values="0 0 0 0 0 0 0 0 0 0 0 0 0 0 0 0 0 0 0.25 0"/>
<feBlend mode="normal" in2="BackgroundImageFix" result="effect1_dropShadow_643_113"/>
<feBlend mode="normal" in="SourceGraphic" in2="effect1_dropShadow_643_113" result="shape"/>
</filter>
<filter id="filter1_d_643_113" x="309.531" y="181" width="135.778" height="444.808" filterUnits="userSpaceOnUse" color-interpolation-filters="sRGB">
<feFlood flood-opacity="0" result="BackgroundImageFix"/>
<feColorMatrix in="SourceAlpha" type="matrix" values="0 0 0 0 0 0 0 0 0 0 0 0 0 0 0 0 0 0 127 0" result="hardAlpha"/>
<feOffset dy="3.80908"/>
<feGaussianBlur stdDeviation="1.90454"/>
<feComposite in2="hardAlpha" operator="out"/>
<feColorMatrix type="matrix" values="0 0 0 0 0 0 0 0 0 0 0 0 0 0 0 0 0 0 0.25 0"/>
<feBlend mode="normal" in2="BackgroundImageFix" result="effect1_dropShadow_643_113"/>
<feBlend mode="normal" in="SourceGraphic" in2="effect1_dropShadow_643_113" result="shape"/>
</filter>
<filter id="filter2_d_643_113" x="379.433" y="381.38" width="112.473" height="174.602" filterUnits="userSpaceOnUse" color-interpolation-filters="sRGB">
<feFlood flood-opacity="0" result="BackgroundImageFix"/>
<feColorMatrix in="SourceAlpha" type="matrix" values="0 0 0 0 0 0 0 0 0 0 0 0 0 0 0 0 0 0 127 0" result="hardAlpha"/>
<feOffset dy="3.80908"/>
<feGaussianBlur stdDeviation="1.90454"/>
<feComposite in2="hardAlpha" operator="out"/>
<feColorMatrix type="matrix" values="0 0 0 0 0 0 0 0 0 0 0 0 0 0 0 0 0 0 0.25 0"/>
<feBlend mode="normal" in2="BackgroundImageFix" result="effect1_dropShadow_643_113"/>
<feBlend mode="normal" in="SourceGraphic" in2="effect1_dropShadow_643_113" result="shape"/>
</filter>
<filter id="filter3_d_643_113" x="254.191" y="396.561" width="92.084" height="156.386" filterUnits="userSpaceOnUse" color-interpolation-filters="sRGB">
<feFlood flood-opacity="0" result="BackgroundImageFix"/>
<feColorMatrix in="SourceAlpha" type="matrix" values="0 0 0 0 0 0 0 0 0 0 0 0 0 0 0 0 0 0 127 0" result="hardAlpha"/>
<feOffset dy="3.80908"/>
<feGaussianBlur stdDeviation="1.90454"/>
<feComposite in2="hardAlpha" operator="out"/>
<feColorMatrix type="matrix" values="0 0 0 0 0 0 0 0 0 0 0 0 0 0 0 0 0 0 0.25 0"/>
<feBlend mode="normal" in2="BackgroundImageFix" result="effect1_dropShadow_643_113"/>
<feBlend mode="normal" in="SourceGraphic" in2="effect1_dropShadow_643_113" result="shape"/>
</filter>
<filter id="filter4_d_643_113" x="799.102" y="456.83" width="19.4812" height="110.654" filterUnits="userSpaceOnUse" color-interpolation-filters="sRGB">
<feFlood flood-opacity="0" result="BackgroundImageFix"/>
<feColorMatrix in="SourceAlpha" type="matrix" values="0 0 0 0 0 0 0 0 0 0 0 0 0 0 0 0 0 0 127 0" result="hardAlpha"/>
<feOffset dy="3.80908"/>
<feGaussianBlur stdDeviation="1.90454"/>
<feComposite in2="hardAlpha" operator="out"/>
<feColorMatrix type="matrix" values="0 0 0 0 0 0 0 0 0 0 0 0 0 0 0 0 0 0 0.25 0"/>
<feBlend mode="normal" in2="BackgroundImageFix" result="effect1_dropShadow_643_113"/>
<feBlend mode="normal" in="SourceGraphic" in2="effect1_dropShadow_643_113" result="shape"/>
</filter>
<filter id="filter5_d_643_113" x="1025.1" y="456.83" width="78.6428" height="110.654" filterUnits="userSpaceOnUse" color-interpolation-filters="sRGB">
<feFlood flood-opacity="0" result="BackgroundImageFix"/>
<feColorMatrix in="SourceAlpha" type="matrix" values="0 0 0 0 0 0 0 0 0 0 0 0 0 0 0 0 0 0 127 0" result="hardAlpha"/>
<feOffset dy="3.80908"/>
<feGaussianBlur stdDeviation="1.90454"/>
<feComposite in2="hardAlpha" operator="out"/>
<feColorMatrix type="matrix" values="0 0 0 0 0 0 0 0 0 0 0 0 0 0 0 0 0 0 0.25 0"/>
<feBlend mode="normal" in2="BackgroundImageFix" result="effect1_dropShadow_643_113"/>
<feBlend mode="normal" in="SourceGraphic" in2="effect1_dropShadow_643_113" result="shape"/>
</filter>
<filter id="filter6_d_643_113" x="1112.49" y="456.6" width="80.9221" height="110.172" filterUnits="userSpaceOnUse" color-interpolation-filters="sRGB">
<feFlood flood-opacity="0" result="BackgroundImageFix"/>
<feColorMatrix in="SourceAlpha" type="matrix" values="0 0 0 0 0 0 0 0 0 0 0 0 0 0 0 0 0 0 127 0" result="hardAlpha"/>
<feOffset dy="3.71104"/>
<feGaussianBlur stdDeviation="1.85552"/>
<feComposite in2="hardAlpha" operator="out"/>
<feColorMatrix type="matrix" values="0 0 0 0 0 0 0 0 0 0 0 0 0 0 0 0 0 0 0.25 0"/>
<feBlend mode="normal" in2="BackgroundImageFix" result="effect1_dropShadow_643_113"/>
<feBlend mode="normal" in="SourceGraphic" in2="effect1_dropShadow_643_113" result="shape"/>
</filter>
<filter id="filter7_d_643_113" x="609.102" y="456.671" width="83.6445" height="110.654" filterUnits="userSpaceOnUse" color-interpolation-filters="sRGB">
<feFlood flood-opacity="0" result="BackgroundImageFix"/>
<feColorMatrix in="SourceAlpha" type="matrix" values="0 0 0 0 0 0 0 0 0 0 0 0 0 0 0 0 0 0 127 0" result="hardAlpha"/>
<feOffset dy="3.80908"/>
<feGaussianBlur stdDeviation="1.90454"/>
<feComposite in2="hardAlpha" operator="out"/>
<feColorMatrix type="matrix" values="0 0 0 0 0 0 0 0 0 0 0 0 0 0 0 0 0 0 0.25 0"/>
<feBlend mode="normal" in2="BackgroundImageFix" result="effect1_dropShadow_643_113"/>
<feBlend mode="normal" in="SourceGraphic" in2="effect1_dropShadow_643_113" result="shape"/>
</filter>
<filter id="filter8_d_643_113" x="932.102" y="456.83" width="83.6445" height="110.654" filterUnits="userSpaceOnUse" color-interpolation-filters="sRGB">
<feFlood flood-opacity="0" result="BackgroundImageFix"/>
<feColorMatrix in="SourceAlpha" type="matrix" values="0 0 0 0 0 0 0 0 0 0 0 0 0 0 0 0 0 0 127 0" result="hardAlpha"/>
<feOffset dy="3.80908"/>
<feGaussianBlur stdDeviation="1.90454"/>
<feComposite in2="hardAlpha" operator="out"/>
<feColorMatrix type="matrix" values="0 0 0 0 0 0 0 0 0 0 0 0 0 0 0 0 0 0 0.25 0"/>
<feBlend mode="normal" in2="BackgroundImageFix" result="effect1_dropShadow_643_113"/>
<feBlend mode="normal" in="SourceGraphic" in2="effect1_dropShadow_643_113" result="shape"/>
</filter>
<filter id="filter9_d_643_113" x="709.102" y="456.83" width="79.6431" height="110.654" filterUnits="userSpaceOnUse" color-interpolation-filters="sRGB">
<feFlood flood-opacity="0" result="BackgroundImageFix"/>
<feColorMatrix in="SourceAlpha" type="matrix" values="0 0 0 0 0 0 0 0 0 0 0 0 0 0 0 0 0 0 127 0" result="hardAlpha"/>
<feOffset dy="3.80908"/>
<feGaussianBlur stdDeviation="1.90454"/>
<feComposite in2="hardAlpha" operator="out"/>
<feColorMatrix type="matrix" values="0 0 0 0 0 0 0 0 0 0 0 0 0 0 0 0 0 0 0.25 0"/>
<feBlend mode="normal" in2="BackgroundImageFix" result="effect1_dropShadow_643_113"/>
<feBlend mode="normal" in="SourceGraphic" in2="effect1_dropShadow_643_113" result="shape"/>
</filter>
<filter id="filter10_d_643_113" x="827.244" y="456.422" width="90.616" height="112.947" filterUnits="userSpaceOnUse" color-interpolation-filters="sRGB">
<feFlood flood-opacity="0" result="BackgroundImageFix"/>
<feColorMatrix in="SourceAlpha" type="matrix" values="0 0 0 0 0 0 0 0 0 0 0 0 0 0 0 0 0 0 127 0" result="hardAlpha"/>
<feOffset dy="3.80908"/>
<feGaussianBlur stdDeviation="1.90454"/>
<feComposite in2="hardAlpha" operator="out"/>
<feColorMatrix type="matrix" values="0 0 0 0 0 0 0 0 0 0 0 0 0 0 0 0 0 0 0.25 0"/>
<feBlend mode="normal" in2="BackgroundImageFix" result="effect1_dropShadow_643_113"/>
<feBlend mode="normal" in="SourceGraphic" in2="effect1_dropShadow_643_113" result="shape"/>
</filter>
<filter id="filter11_d_643_113" x="608.312" y="328.785" width="85.6453" height="119.657" filterUnits="userSpaceOnUse" color-interpolation-filters="sRGB">
<feFlood flood-opacity="0" result="BackgroundImageFix"/>
<feColorMatrix in="SourceAlpha" type="matrix" values="0 0 0 0 0 0 0 0 0 0 0 0 0 0 0 0 0 0 127 0" result="hardAlpha"/>
<feOffset dy="3.80908"/>
<feGaussianBlur stdDeviation="1.90454"/>
<feComposite in2="hardAlpha" operator="out"/>
<feColorMatrix type="matrix" values="0 0 0 0 0 0 0 0 0 0 0 0 0 0 0 0 0 0 0.25 0"/>
<feBlend mode="normal" in2="BackgroundImageFix" result="effect1_dropShadow_643_113"/>
<feBlend mode="normal" in="SourceGraphic" in2="effect1_dropShadow_643_113" result="shape"/>
</filter>
<filter id="filter12_d_643_113" x="693.342" y="328.785" width="89.6467" height="119.657" filterUnits="userSpaceOnUse" color-interpolation-filters="sRGB">
<feFlood flood-opacity="0" result="BackgroundImageFix"/>
<feColorMatrix in="SourceAlpha" type="matrix" values="0 0 0 0 0 0 0 0 0 0 0 0 0 0 0 0 0 0 127 0" result="hardAlpha"/>
<feOffset dy="3.80908"/>
<feGaussianBlur stdDeviation="1.90454"/>
<feComposite in2="hardAlpha" operator="out"/>
<feColorMatrix type="matrix" values="0 0 0 0 0 0 0 0 0 0 0 0 0 0 0 0 0 0 0.25 0"/>
<feBlend mode="normal" in2="BackgroundImageFix" result="effect1_dropShadow_643_113"/>
<feBlend mode="normal" in="SourceGraphic" in2="effect1_dropShadow_643_113" result="shape"/>
</filter>
<filter id="filter13_d_643_113" x="780.373" y="328.785" width="99.6501" height="119.657" filterUnits="userSpaceOnUse" color-interpolation-filters="sRGB">
<feFlood flood-opacity="0" result="BackgroundImageFix"/>
<feColorMatrix in="SourceAlpha" type="matrix" values="0 0 0 0 0 0 0 0 0 0 0 0 0 0 0 0 0 0 127 0" result="hardAlpha"/>
<feOffset dy="3.80908"/>
<feGaussianBlur stdDeviation="1.90454"/>
<feComposite in2="hardAlpha" operator="out"/>
<feColorMatrix type="matrix" values="0 0 0 0 0 0 0 0 0 0 0 0 0 0 0 0 0 0 0.25 0"/>
<feBlend mode="normal" in2="BackgroundImageFix" result="effect1_dropShadow_643_113"/>
<feBlend mode="normal" in="SourceGraphic" in2="effect1_dropShadow_643_113" result="shape"/>
</filter>
<filter id="filter14_d_643_113" x="992.446" y="328.785" width="99.6501" height="119.657" filterUnits="userSpaceOnUse" color-interpolation-filters="sRGB">
<feFlood flood-opacity="0" result="BackgroundImageFix"/>
<feColorMatrix in="SourceAlpha" type="matrix" values="0 0 0 0 0 0 0 0 0 0 0 0 0 0 0 0 0 0 127 0" result="hardAlpha"/>
<feOffset dy="3.80908"/>
<feGaussianBlur stdDeviation="1.90454"/>
<feComposite in2="hardAlpha" operator="out"/>
<feColorMatrix type="matrix" values="0 0 0 0 0 0 0 0 0 0 0 0 0 0 0 0 0 0 0.25 0"/>
<feBlend mode="normal" in2="BackgroundImageFix" result="effect1_dropShadow_643_113"/>
<feBlend mode="normal" in="SourceGraphic" in2="effect1_dropShadow_643_113" result="shape"/>
</filter>
<filter id="filter15_d_643_113" x="959.435" y="328.785" width="32.627" height="119.657" filterUnits="userSpaceOnUse" color-interpolation-filters="sRGB">
<feFlood flood-opacity="0" result="BackgroundImageFix"/>
<feColorMatrix in="SourceAlpha" type="matrix" values="0 0 0 0 0 0 0 0 0 0 0 0 0 0 0 0 0 0 127 0" result="hardAlpha"/>
<feOffset dy="3.80908"/>
<feGaussianBlur stdDeviation="1.90454"/>
<feComposite in2="hardAlpha" operator="out"/>
<feColorMatrix type="matrix" values="0 0 0 0 0 0 0 0 0 0 0 0 0 0 0 0 0 0 0.25 0"/>
<feBlend mode="normal" in2="BackgroundImageFix" result="effect1_dropShadow_643_113"/>
<feBlend mode="normal" in="SourceGraphic" in2="effect1_dropShadow_643_113" result="shape"/>
</filter>
<filter id="filter16_dd_643_113" x="896.413" y="348.556" width="58.0024" height="80.08" filterUnits="userSpaceOnUse" color-interpolation-filters="sRGB">
<feFlood flood-opacity="0" result="BackgroundImageFix"/>
<feColorMatrix in="SourceAlpha" type="matrix" values="0 0 0 0 0 0 0 0 0 0 0 0 0 0 0 0 0 0 127 0" result="hardAlpha"/>
<feOffset dy="3.80908"/>
<feGaussianBlur stdDeviation="1.90454"/>
<feComposite in2="hardAlpha" operator="out"/>
<feColorMatrix type="matrix" values="0 0 0 0 0 0 0 0 0 0 0 0 0 0 0 0 0 0 0.25 0"/>
<feBlend mode="normal" in2="BackgroundImageFix" result="effect1_dropShadow_643_113"/>
<feColorMatrix in="SourceAlpha" type="matrix" values="0 0 0 0 0 0 0 0 0 0 0 0 0 0 0 0 0 0 127 0" result="hardAlpha"/>
<feOffset dy="3.80776"/>
<feGaussianBlur stdDeviation="1.90388"/>
<feComposite in2="hardAlpha" operator="out"/>
<feColorMatrix type="matrix" values="0 0 0 0 0 0 0 0 0 0 0 0 0 0 0 0 0 0 0.25 0"/>
<feBlend mode="normal" in2="effect1_dropShadow_643_113" result="effect2_dropShadow_643_113"/>
<feBlend mode="normal" in="SourceGraphic" in2="effect2_dropShadow_643_113" result="shape"/>
</filter>
<filter id="filter17_d_643_113" x="1092.16" y="327.671" width="99.4573" height="119.501" filterUnits="userSpaceOnUse" color-interpolation-filters="sRGB">
<feFlood flood-opacity="0" result="BackgroundImageFix"/>
<feColorMatrix in="SourceAlpha" type="matrix" values="0 0 0 0 0 0 0 0 0 0 0 0 0 0 0 0 0 0 127 0" result="hardAlpha"/>
<feOffset dy="3.75036"/>
<feGaussianBlur stdDeviation="1.87518"/>
<feComposite in2="hardAlpha" operator="out"/>
<feColorMatrix type="matrix" values="0 0 0 0 0 0 0 0 0 0 0 0 0 0 0 0 0 0 0.25 0"/>
<feBlend mode="normal" in2="BackgroundImageFix" result="effect1_dropShadow_643_113"/>
<feBlend mode="normal" in="SourceGraphic" in2="effect1_dropShadow_643_113" result="shape"/>
</filter>
</defs>
</svg>
