<svg width="1445" height="800" viewBox="0 0 1445 800" fill="none" xmlns="http://www.w3.org/2000/svg">
<g filter="url(#filter0_d_906_159)">
<path d="M442 305.183H558V425.992V541.491V581.589H442V554.549V372.281V305.183Z" fill="#00B0FF"/>
</g>
<g filter="url(#filter1_d_906_159)">
<path d="M313.34 181.001H441.5V372.282V554.437V618.191H313.34V392.812L313.34 181.001Z" fill="#FF2260"/>
</g>
<g filter="url(#filter2_d_906_159)">
<rect x="383.242" y="381.381" width="104.854" height="166.984" fill="#0058A9"/>
</g>
<g filter="url(#filter3_d_906_159)">
<rect x="258" y="396.561" width="84.466" height="148.768" fill="#E2C028"/>
</g>
<g filter="url(#filter4_d_906_159)">
<path d="M802.911 456.831H814.774V539.627V559.867H802.911V456.831Z" fill="#ECF0F3"/>
</g>
<g filter="url(#filter5_d_906_159)">
<path d="M1058.92 456.831H1070.78H1099.94V469.335H1070.78V539.627V559.867H1058.92V469.335H1028.91V456.831H1058.92Z" fill="#ECF0F3"/>
</g>
<g filter="url(#filter6_d_906_159)">
<path d="M1116.65 546.75V535.05C1125.95 544.65 1140.65 549.3 1152.95 549.3C1164.95 549.3 1178.75 543.9 1178.75 530.1C1178.75 522.6 1172.6 518.55 1164.5 515.55C1146.05 508.8 1116.2 508.8 1116.2 484.95C1116.2 465.75 1134.5 456.6 1151.75 456.6C1163.45 456.6 1176.2 460.65 1185.35 468.75V480.45C1176.5 471.45 1163.3 466.65 1151.75 466.65C1140.05 466.65 1126.55 471.9 1126.55 485.55C1126.55 495.75 1137.65 499.05 1150.25 501.9C1168.25 505.95 1189.7 509.55 1189.7 530.7C1189.7 550.65 1170.35 559.35 1152.5 559.35C1140.05 559.35 1126.4 555.3 1116.65 546.75Z" fill="#ECF0F3"/>
</g>
<g filter="url(#filter7_d_906_159)">
<path d="M612.911 456.672H624.415V501.687H676.933V456.672H688.937V559.708H676.933V514.192H624.415V559.708H612.911V456.672Z" fill="#ECF0F3"/>
</g>
<g filter="url(#filter8_d_906_159)">
<path d="M935.911 456.831H947.415V501.846H999.933V456.831H1011.94V559.867H999.933V514.351H947.415V559.867H935.911V456.831Z" fill="#ECF0F3"/>
</g>
<g filter="url(#filter9_d_906_159)">
<path d="M712.911 456.831H735.565H784.936V468.835H724.915V501.846H782.935V513.851H724.915V549.863H784.936V559.867H735.565H712.911V456.831Z" fill="#ECF0F3"/>
</g>
<g filter="url(#filter10_d_906_159)">
<path d="M831.629 516.123C831.445 514.772 831.353 514.097 831.283 513.42C831.104 511.704 831.03 509.98 831.059 508.255C831.071 507.575 831.104 506.894 831.171 505.532L831.248 503.954C831.263 503.649 831.27 503.497 831.279 503.345C831.464 500.027 832.036 496.742 832.981 493.556C833.024 493.41 833.068 493.264 833.157 492.971C833.259 492.638 833.309 492.471 833.361 492.306C834.493 488.692 836.099 485.244 838.137 482.052C838.231 481.906 838.326 481.76 838.516 481.467L839.558 479.863C839.81 479.476 839.936 479.282 840.064 479.09C841.054 477.602 842.136 476.178 843.304 474.825C843.455 474.651 843.608 474.477 843.913 474.131C844.567 473.39 844.894 473.02 845.227 472.659C847.811 469.862 850.756 467.423 853.984 465.404C854.401 465.144 854.826 464.892 855.675 464.387L856.147 464.107C857.793 463.13 858.615 462.642 859.452 462.194C863.226 460.173 867.282 458.73 871.485 457.911C872.416 457.73 873.363 457.588 875.255 457.306L877.167 457.021C878.033 456.892 878.466 456.827 878.898 456.772C883.043 456.239 887.244 456.316 891.367 456.999C891.796 457.07 892.226 457.151 893.087 457.312C893.681 457.422 893.977 457.478 894.272 457.537C897.101 458.106 899.865 458.96 902.522 460.085C902.799 460.202 903.075 460.324 903.627 460.567L911.05 463.833V474.836L899.045 470.335L896.713 469.617C893.942 468.765 891.082 468.235 888.19 468.04C886.168 467.903 884.138 467.93 882.12 468.12L880.445 468.278C876.527 468.647 872.685 469.588 869.04 471.071C866.156 472.243 863.419 473.746 860.881 475.549L859.61 476.452C854.629 479.992 850.569 484.674 847.77 490.107C844.981 495.52 843.526 501.522 843.526 507.611V509.439C843.526 514.661 844.57 519.83 846.596 524.643C849.803 532.258 855.334 538.664 862.399 542.946L865.735 544.968C867.266 545.895 868.863 546.709 870.514 547.401C878.893 550.915 888.283 551.161 896.834 548.091L903.047 545.861V512.85H870.925V502.846H914.051V553.864L910.688 555.392C907.934 556.644 906.557 557.27 905.144 557.796C903.693 558.336 902.214 558.797 900.713 559.177C899.252 559.547 897.763 559.814 894.785 560.348L891.684 560.905C890.729 561.076 890.252 561.162 889.776 561.236C885.64 561.883 881.432 561.92 877.285 561.347C876.808 561.281 876.329 561.204 875.372 561.049C874.512 560.911 874.081 560.841 873.655 560.763C869.95 560.089 866.35 558.929 862.948 557.313C862.556 557.127 862.167 556.932 861.387 556.542L857.63 554.663C857.25 554.473 857.06 554.378 856.872 554.282C853.025 552.311 849.498 549.769 846.412 546.743C846.261 546.595 846.111 546.445 845.81 546.145C845.535 545.869 845.397 545.731 845.261 545.593C842.481 542.762 840.107 539.558 838.209 536.074C838.116 535.904 838.024 535.732 837.841 535.388L837.394 534.552C836.638 533.134 836.26 532.425 835.911 531.708C834.158 528.104 832.919 524.271 832.231 520.323C832.094 519.537 831.986 518.741 831.769 517.149L831.629 516.123Z" fill="#ECF0F3"/>
</g>
<g filter="url(#filter11_d_906_159)">
<path d="M612.121 328.786H637.13V418.817H690.148V440.825H637.13H612.121V328.786Z" fill="#ECF0F3"/>
</g>
<g filter="url(#filter12_d_906_159)">
<path d="M697.151 328.786H722.159H779.179V350.794H722.159V373.802H777.178V396.81H722.159V418.817H778.179V440.825H722.159H697.151V328.786Z" fill="#ECF0F3"/>
</g>
<g filter="url(#filter13_d_906_159)">
<path d="M784.182 328.786H803.188L850.205 393.809V328.786H876.214V440.825H856.707L809.191 373.301V440.825H784.182V328.786Z" fill="#ECF0F3"/>
</g>
<g filter="url(#filter14_d_906_159)">
<path d="M996.255 328.786H1015.26L1062.28 393.809V328.786H1088.29V440.825H1068.78L1021.26 373.301V440.825H996.255V328.786Z" fill="#ECF0F3"/>
</g>
<g filter="url(#filter15_d_906_159)">
<path d="M963.244 328.786H988.253V440.825H963.244V414.816C963.244 414.816 967.51 407.128 969.246 401.811C971.34 395.401 972.248 391.549 972.248 384.805C972.248 378.062 971.34 374.21 969.246 367.8C967.51 362.482 963.244 354.795 963.244 354.795V328.786Z" fill="#ECF0F3"/>
</g>
<g filter="url(#filter16_dd_906_159)">
<path d="M900.222 349.793C900.222 349.793 915.277 347.011 924.23 349.793C932.199 352.269 936.901 354.881 942.236 361.297C947.501 367.628 949.327 372.621 950.239 380.804C951.5 392.11 949.674 400.205 942.236 408.814C936.849 415.05 932.121 417.442 924.23 419.818C915.252 422.52 900.222 419.818 900.222 419.818V349.793Z" fill="#E2C028"/>
</g>
<g filter="url(#filter17_d_906_159)">
<path d="M1110.37 346.671C1111.74 345.186 1126.89 327.671 1153.44 327.671C1171.87 327.671 1186.49 336.493 1186.49 336.493V362.279C1186.49 362.279 1173.71 351.418 1155.12 351.418C1153.05 351.418 1131.86 350.74 1123.15 371.779C1121.38 376.041 1120.7 378.712 1120.7 383.315C1120.7 383.99 1120.03 392.812 1126.89 402.315C1127.38 402.991 1131.71 411.134 1146.17 415.205C1155.76 417.906 1165.45 414.529 1165.45 414.529V393.493H1136.92V371.779H1187.87V430.137C1187.87 430.137 1173.71 439.637 1153.44 439.637C1152.37 439.637 1130.33 441.269 1111.74 421.994C1110.37 420.566 1095.91 407.062 1095.91 383.315C1095.91 379.919 1095.9 362.279 1110.37 346.671Z" fill="#ECF0F3"/>
</g>
<defs>
<filter id="filter0_d_906_159" x="441" y="305.183" width="118" height="279.406" filterUnits="userSpaceOnUse" color-interpolation-filters="sRGB">
<feFlood flood-opacity="0" result="BackgroundImageFix"/>
<feColorMatrix in="SourceAlpha" type="matrix" values="0 0 0 0 0 0 0 0 0 0 0 0 0 0 0 0 0 0 127 0" result="hardAlpha"/>
<feOffset dy="2"/>
<feGaussianBlur stdDeviation="0.5"/>
<feComposite in2="hardAlpha" operator="out"/>
<feColorMatrix type="matrix" values="0 0 0 0 0 0 0 0 0 0 0 0 0 0 0 0 0 0 0.15 0"/>
<feBlend mode="normal" in2="BackgroundImageFix" result="effect1_dropShadow_906_159"/>
<feBlend mode="normal" in="SourceGraphic" in2="effect1_dropShadow_906_159" result="shape"/>
</filter>
<filter id="filter1_d_906_159" x="312.34" y="181.001" width="130.16" height="440.19" filterUnits="userSpaceOnUse" color-interpolation-filters="sRGB">
<feFlood flood-opacity="0" result="BackgroundImageFix"/>
<feColorMatrix in="SourceAlpha" type="matrix" values="0 0 0 0 0 0 0 0 0 0 0 0 0 0 0 0 0 0 127 0" result="hardAlpha"/>
<feOffset dy="2"/>
<feGaussianBlur stdDeviation="0.5"/>
<feComposite in2="hardAlpha" operator="out"/>
<feColorMatrix type="matrix" values="0 0 0 0 0 0 0 0 0 0 0 0 0 0 0 0 0 0 0.15 0"/>
<feBlend mode="normal" in2="BackgroundImageFix" result="effect1_dropShadow_906_159"/>
<feBlend mode="normal" in="SourceGraphic" in2="effect1_dropShadow_906_159" result="shape"/>
</filter>
<filter id="filter2_d_906_159" x="382.242" y="381.381" width="106.854" height="169.984" filterUnits="userSpaceOnUse" color-interpolation-filters="sRGB">
<feFlood flood-opacity="0" result="BackgroundImageFix"/>
<feColorMatrix in="SourceAlpha" type="matrix" values="0 0 0 0 0 0 0 0 0 0 0 0 0 0 0 0 0 0 127 0" result="hardAlpha"/>
<feOffset dy="2"/>
<feGaussianBlur stdDeviation="0.5"/>
<feComposite in2="hardAlpha" operator="out"/>
<feColorMatrix type="matrix" values="0 0 0 0 0 0 0 0 0 0 0 0 0 0 0 0 0 0 0.15 0"/>
<feBlend mode="normal" in2="BackgroundImageFix" result="effect1_dropShadow_906_159"/>
<feBlend mode="normal" in="SourceGraphic" in2="effect1_dropShadow_906_159" result="shape"/>
</filter>
<filter id="filter3_d_906_159" x="257" y="396.561" width="86.4658" height="151.768" filterUnits="userSpaceOnUse" color-interpolation-filters="sRGB">
<feFlood flood-opacity="0" result="BackgroundImageFix"/>
<feColorMatrix in="SourceAlpha" type="matrix" values="0 0 0 0 0 0 0 0 0 0 0 0 0 0 0 0 0 0 127 0" result="hardAlpha"/>
<feOffset dy="2"/>
<feGaussianBlur stdDeviation="0.5"/>
<feComposite in2="hardAlpha" operator="out"/>
<feColorMatrix type="matrix" values="0 0 0 0 0 0 0 0 0 0 0 0 0 0 0 0 0 0 0.15 0"/>
<feBlend mode="normal" in2="BackgroundImageFix" result="effect1_dropShadow_906_159"/>
<feBlend mode="normal" in="SourceGraphic" in2="effect1_dropShadow_906_159" result="shape"/>
</filter>
<filter id="filter4_d_906_159" x="801.911" y="456.831" width="13.863" height="106.036" filterUnits="userSpaceOnUse" color-interpolation-filters="sRGB">
<feFlood flood-opacity="0" result="BackgroundImageFix"/>
<feColorMatrix in="SourceAlpha" type="matrix" values="0 0 0 0 0 0 0 0 0 0 0 0 0 0 0 0 0 0 127 0" result="hardAlpha"/>
<feOffset dy="2"/>
<feGaussianBlur stdDeviation="0.5"/>
<feComposite in2="hardAlpha" operator="out"/>
<feColorMatrix type="matrix" values="0 0 0 0 0 0 0 0 0 0 0 0 0 0 0 0 0 0 0.25 0"/>
<feBlend mode="normal" in2="BackgroundImageFix" result="effect1_dropShadow_906_159"/>
<feBlend mode="normal" in="SourceGraphic" in2="effect1_dropShadow_906_159" result="shape"/>
</filter>
<filter id="filter5_d_906_159" x="1027.91" y="456.831" width="73.0247" height="106.036" filterUnits="userSpaceOnUse" color-interpolation-filters="sRGB">
<feFlood flood-opacity="0" result="BackgroundImageFix"/>
<feColorMatrix in="SourceAlpha" type="matrix" values="0 0 0 0 0 0 0 0 0 0 0 0 0 0 0 0 0 0 127 0" result="hardAlpha"/>
<feOffset dy="2"/>
<feGaussianBlur stdDeviation="0.5"/>
<feComposite in2="hardAlpha" operator="out"/>
<feColorMatrix type="matrix" values="0 0 0 0 0 0 0 0 0 0 0 0 0 0 0 0 0 0 0.25 0"/>
<feBlend mode="normal" in2="BackgroundImageFix" result="effect1_dropShadow_906_159"/>
<feBlend mode="normal" in="SourceGraphic" in2="effect1_dropShadow_906_159" result="shape"/>
</filter>
<filter id="filter6_d_906_159" x="1112.49" y="456.6" width="80.9221" height="110.172" filterUnits="userSpaceOnUse" color-interpolation-filters="sRGB">
<feFlood flood-opacity="0" result="BackgroundImageFix"/>
<feColorMatrix in="SourceAlpha" type="matrix" values="0 0 0 0 0 0 0 0 0 0 0 0 0 0 0 0 0 0 127 0" result="hardAlpha"/>
<feOffset dy="3.71104"/>
<feGaussianBlur stdDeviation="1.85552"/>
<feComposite in2="hardAlpha" operator="out"/>
<feColorMatrix type="matrix" values="0 0 0 0 0 0 0 0 0 0 0 0 0 0 0 0 0 0 0.25 0"/>
<feBlend mode="normal" in2="BackgroundImageFix" result="effect1_dropShadow_906_159"/>
<feBlend mode="normal" in="SourceGraphic" in2="effect1_dropShadow_906_159" result="shape"/>
</filter>
<filter id="filter7_d_906_159" x="611.911" y="456.672" width="78.0264" height="106.036" filterUnits="userSpaceOnUse" color-interpolation-filters="sRGB">
<feFlood flood-opacity="0" result="BackgroundImageFix"/>
<feColorMatrix in="SourceAlpha" type="matrix" values="0 0 0 0 0 0 0 0 0 0 0 0 0 0 0 0 0 0 127 0" result="hardAlpha"/>
<feOffset dy="2"/>
<feGaussianBlur stdDeviation="0.5"/>
<feComposite in2="hardAlpha" operator="out"/>
<feColorMatrix type="matrix" values="0 0 0 0 0 0 0 0 0 0 0 0 0 0 0 0 0 0 0.25 0"/>
<feBlend mode="normal" in2="BackgroundImageFix" result="effect1_dropShadow_906_159"/>
<feBlend mode="normal" in="SourceGraphic" in2="effect1_dropShadow_906_159" result="shape"/>
</filter>
<filter id="filter8_d_906_159" x="934.911" y="456.831" width="78.0264" height="106.036" filterUnits="userSpaceOnUse" color-interpolation-filters="sRGB">
<feFlood flood-opacity="0" result="BackgroundImageFix"/>
<feColorMatrix in="SourceAlpha" type="matrix" values="0 0 0 0 0 0 0 0 0 0 0 0 0 0 0 0 0 0 127 0" result="hardAlpha"/>
<feOffset dy="2"/>
<feGaussianBlur stdDeviation="0.5"/>
<feComposite in2="hardAlpha" operator="out"/>
<feColorMatrix type="matrix" values="0 0 0 0 0 0 0 0 0 0 0 0 0 0 0 0 0 0 0.25 0"/>
<feBlend mode="normal" in2="BackgroundImageFix" result="effect1_dropShadow_906_159"/>
<feBlend mode="normal" in="SourceGraphic" in2="effect1_dropShadow_906_159" result="shape"/>
</filter>
<filter id="filter9_d_906_159" x="711.911" y="456.831" width="74.0249" height="106.036" filterUnits="userSpaceOnUse" color-interpolation-filters="sRGB">
<feFlood flood-opacity="0" result="BackgroundImageFix"/>
<feColorMatrix in="SourceAlpha" type="matrix" values="0 0 0 0 0 0 0 0 0 0 0 0 0 0 0 0 0 0 127 0" result="hardAlpha"/>
<feOffset dy="2"/>
<feGaussianBlur stdDeviation="0.5"/>
<feComposite in2="hardAlpha" operator="out"/>
<feColorMatrix type="matrix" values="0 0 0 0 0 0 0 0 0 0 0 0 0 0 0 0 0 0 0.25 0"/>
<feBlend mode="normal" in2="BackgroundImageFix" result="effect1_dropShadow_906_159"/>
<feBlend mode="normal" in="SourceGraphic" in2="effect1_dropShadow_906_159" result="shape"/>
</filter>
<filter id="filter10_d_906_159" x="830.053" y="456.422" width="84.9978" height="108.329" filterUnits="userSpaceOnUse" color-interpolation-filters="sRGB">
<feFlood flood-opacity="0" result="BackgroundImageFix"/>
<feColorMatrix in="SourceAlpha" type="matrix" values="0 0 0 0 0 0 0 0 0 0 0 0 0 0 0 0 0 0 127 0" result="hardAlpha"/>
<feOffset dy="2"/>
<feGaussianBlur stdDeviation="0.5"/>
<feComposite in2="hardAlpha" operator="out"/>
<feColorMatrix type="matrix" values="0 0 0 0 0 0 0 0 0 0 0 0 0 0 0 0 0 0 0.25 0"/>
<feBlend mode="normal" in2="BackgroundImageFix" result="effect1_dropShadow_906_159"/>
<feBlend mode="normal" in="SourceGraphic" in2="effect1_dropShadow_906_159" result="shape"/>
</filter>
<filter id="filter11_d_906_159" x="611.121" y="328.786" width="80.0271" height="115.039" filterUnits="userSpaceOnUse" color-interpolation-filters="sRGB">
<feFlood flood-opacity="0" result="BackgroundImageFix"/>
<feColorMatrix in="SourceAlpha" type="matrix" values="0 0 0 0 0 0 0 0 0 0 0 0 0 0 0 0 0 0 127 0" result="hardAlpha"/>
<feOffset dy="2"/>
<feGaussianBlur stdDeviation="0.5"/>
<feComposite in2="hardAlpha" operator="out"/>
<feColorMatrix type="matrix" values="0 0 0 0 0 0 0 0 0 0 0 0 0 0 0 0 0 0 0.25 0"/>
<feBlend mode="normal" in2="BackgroundImageFix" result="effect1_dropShadow_906_159"/>
<feBlend mode="normal" in="SourceGraphic" in2="effect1_dropShadow_906_159" result="shape"/>
</filter>
<filter id="filter12_d_906_159" x="696.151" y="328.786" width="84.0286" height="115.039" filterUnits="userSpaceOnUse" color-interpolation-filters="sRGB">
<feFlood flood-opacity="0" result="BackgroundImageFix"/>
<feColorMatrix in="SourceAlpha" type="matrix" values="0 0 0 0 0 0 0 0 0 0 0 0 0 0 0 0 0 0 127 0" result="hardAlpha"/>
<feOffset dy="2"/>
<feGaussianBlur stdDeviation="0.5"/>
<feComposite in2="hardAlpha" operator="out"/>
<feColorMatrix type="matrix" values="0 0 0 0 0 0 0 0 0 0 0 0 0 0 0 0 0 0 0.25 0"/>
<feBlend mode="normal" in2="BackgroundImageFix" result="effect1_dropShadow_906_159"/>
<feBlend mode="normal" in="SourceGraphic" in2="effect1_dropShadow_906_159" result="shape"/>
</filter>
<filter id="filter13_d_906_159" x="783.182" y="328.786" width="94.032" height="115.039" filterUnits="userSpaceOnUse" color-interpolation-filters="sRGB">
<feFlood flood-opacity="0" result="BackgroundImageFix"/>
<feColorMatrix in="SourceAlpha" type="matrix" values="0 0 0 0 0 0 0 0 0 0 0 0 0 0 0 0 0 0 127 0" result="hardAlpha"/>
<feOffset dy="2"/>
<feGaussianBlur stdDeviation="0.5"/>
<feComposite in2="hardAlpha" operator="out"/>
<feColorMatrix type="matrix" values="0 0 0 0 0 0 0 0 0 0 0 0 0 0 0 0 0 0 0.25 0"/>
<feBlend mode="normal" in2="BackgroundImageFix" result="effect1_dropShadow_906_159"/>
<feBlend mode="normal" in="SourceGraphic" in2="effect1_dropShadow_906_159" result="shape"/>
</filter>
<filter id="filter14_d_906_159" x="995.255" y="328.786" width="94.032" height="115.039" filterUnits="userSpaceOnUse" color-interpolation-filters="sRGB">
<feFlood flood-opacity="0" result="BackgroundImageFix"/>
<feColorMatrix in="SourceAlpha" type="matrix" values="0 0 0 0 0 0 0 0 0 0 0 0 0 0 0 0 0 0 127 0" result="hardAlpha"/>
<feOffset dy="2"/>
<feGaussianBlur stdDeviation="0.5"/>
<feComposite in2="hardAlpha" operator="out"/>
<feColorMatrix type="matrix" values="0 0 0 0 0 0 0 0 0 0 0 0 0 0 0 0 0 0 0.25 0"/>
<feBlend mode="normal" in2="BackgroundImageFix" result="effect1_dropShadow_906_159"/>
<feBlend mode="normal" in="SourceGraphic" in2="effect1_dropShadow_906_159" result="shape"/>
</filter>
<filter id="filter15_d_906_159" x="962.244" y="328.786" width="27.0088" height="115.039" filterUnits="userSpaceOnUse" color-interpolation-filters="sRGB">
<feFlood flood-opacity="0" result="BackgroundImageFix"/>
<feColorMatrix in="SourceAlpha" type="matrix" values="0 0 0 0 0 0 0 0 0 0 0 0 0 0 0 0 0 0 127 0" result="hardAlpha"/>
<feOffset dy="2"/>
<feGaussianBlur stdDeviation="0.5"/>
<feComposite in2="hardAlpha" operator="out"/>
<feColorMatrix type="matrix" values="0 0 0 0 0 0 0 0 0 0 0 0 0 0 0 0 0 0 0.25 0"/>
<feBlend mode="normal" in2="BackgroundImageFix" result="effect1_dropShadow_906_159"/>
<feBlend mode="normal" in="SourceGraphic" in2="effect1_dropShadow_906_159" result="shape"/>
</filter>
<filter id="filter16_dd_906_159" x="899.222" y="348.557" width="52.3843" height="75.4619" filterUnits="userSpaceOnUse" color-interpolation-filters="sRGB">
<feFlood flood-opacity="0" result="BackgroundImageFix"/>
<feColorMatrix in="SourceAlpha" type="matrix" values="0 0 0 0 0 0 0 0 0 0 0 0 0 0 0 0 0 0 127 0" result="hardAlpha"/>
<feOffset dy="2"/>
<feGaussianBlur stdDeviation="0.5"/>
<feComposite in2="hardAlpha" operator="out"/>
<feColorMatrix type="matrix" values="0 0 0 0 0 0 0 0 0 0 0 0 0 0 0 0 0 0 0.1 0"/>
<feBlend mode="normal" in2="BackgroundImageFix" result="effect1_dropShadow_906_159"/>
<feColorMatrix in="SourceAlpha" type="matrix" values="0 0 0 0 0 0 0 0 0 0 0 0 0 0 0 0 0 0 127 0" result="hardAlpha"/>
<feOffset dy="2"/>
<feGaussianBlur stdDeviation="0.5"/>
<feComposite in2="hardAlpha" operator="out"/>
<feColorMatrix type="matrix" values="0 0 0 0 0 0 0 0 0 0 0 0 0 0 0 0 0 0 0.25 0"/>
<feBlend mode="normal" in2="effect1_dropShadow_906_159" result="effect2_dropShadow_906_159"/>
<feBlend mode="normal" in="SourceGraphic" in2="effect2_dropShadow_906_159" result="shape"/>
</filter>
<filter id="filter17_d_906_159" x="1094.91" y="327.671" width="93.9565" height="115" filterUnits="userSpaceOnUse" color-interpolation-filters="sRGB">
<feFlood flood-opacity="0" result="BackgroundImageFix"/>
<feColorMatrix in="SourceAlpha" type="matrix" values="0 0 0 0 0 0 0 0 0 0 0 0 0 0 0 0 0 0 127 0" result="hardAlpha"/>
<feOffset dy="2"/>
<feGaussianBlur stdDeviation="0.5"/>
<feComposite in2="hardAlpha" operator="out"/>
<feColorMatrix type="matrix" values="0 0 0 0 0 0 0 0 0 0 0 0 0 0 0 0 0 0 0.25 0"/>
<feBlend mode="normal" in2="BackgroundImageFix" result="effect1_dropShadow_906_159"/>
<feBlend mode="normal" in="SourceGraphic" in2="effect1_dropShadow_906_159" result="shape"/>
</filter>
</defs>
</svg>
